<mxfile host="app.diagrams.net" modified="2023-09-01T02:49:45.098Z" agent="Mozilla/5.0 (Macintosh; Intel Mac OS X 10_15_7) AppleWebKit/537.36 (KHTML, like Gecko) Chrome/115.0.0.0 Safari/537.36" etag="BFOFzrnOQODVa2w9lzJ3" version="21.6.9" type="github">
  <diagram name="用例" id="6TFDku2e0TgfrtryKRBb">
    <mxGraphModel dx="1306" dy="807" grid="1" gridSize="10" guides="1" tooltips="1" connect="1" arrows="1" fold="1" page="1" pageScale="1" pageWidth="827" pageHeight="1169" math="0" shadow="0">
      <root>
        <mxCell id="0" />
        <mxCell id="1" parent="0" />
        <mxCell id="0sH6JjifTkgalQd2IbYA-1" value="授权ISV" style="ellipse;whiteSpace=wrap;html=1;" vertex="1" parent="1">
          <mxGeometry x="230" y="180" width="80" height="50" as="geometry" />
        </mxCell>
        <mxCell id="0sH6JjifTkgalQd2IbYA-2" value="商家店铺" style="shape=umlActor;verticalLabelPosition=bottom;verticalAlign=top;html=1;outlineConnect=0;" vertex="1" parent="1">
          <mxGeometry x="70" y="210" width="30" height="60" as="geometry" />
        </mxCell>
        <mxCell id="0sH6JjifTkgalQd2IbYA-3" value="" style="endArrow=classic;html=1;rounded=0;entryX=0;entryY=0.5;entryDx=0;entryDy=0;" edge="1" parent="1" source="0sH6JjifTkgalQd2IbYA-2" target="0sH6JjifTkgalQd2IbYA-1">
          <mxGeometry width="50" height="50" relative="1" as="geometry">
            <mxPoint x="230" y="490" as="sourcePoint" />
            <mxPoint x="280" y="440" as="targetPoint" />
          </mxGeometry>
        </mxCell>
        <mxCell id="0sH6JjifTkgalQd2IbYA-4" value="各渠道服务市场" style="rounded=1;whiteSpace=wrap;html=1;" vertex="1" parent="1">
          <mxGeometry x="35" y="293" width="100" height="20" as="geometry" />
        </mxCell>
        <mxCell id="0sH6JjifTkgalQd2IbYA-5" value="维护商家、店铺、快递商家信息" style="ellipse;whiteSpace=wrap;html=1;" vertex="1" parent="1">
          <mxGeometry x="230" y="293" width="100" height="57" as="geometry" />
        </mxCell>
        <mxCell id="0sH6JjifTkgalQd2IbYA-6" value="GG运营" style="shape=umlActor;verticalLabelPosition=bottom;verticalAlign=top;html=1;outlineConnect=0;" vertex="1" parent="1">
          <mxGeometry x="480" y="233" width="30" height="60" as="geometry" />
        </mxCell>
        <mxCell id="0sH6JjifTkgalQd2IbYA-7" value="GG CRM" style="rounded=1;whiteSpace=wrap;html=1;" vertex="1" parent="1">
          <mxGeometry x="445" y="313" width="100" height="20" as="geometry" />
        </mxCell>
        <mxCell id="0sH6JjifTkgalQd2IbYA-8" value="" style="endArrow=classic;html=1;rounded=0;entryX=1;entryY=0.5;entryDx=0;entryDy=0;" edge="1" parent="1" source="0sH6JjifTkgalQd2IbYA-6" target="0sH6JjifTkgalQd2IbYA-5">
          <mxGeometry width="50" height="50" relative="1" as="geometry">
            <mxPoint x="480" y="460" as="sourcePoint" />
            <mxPoint x="530" y="410" as="targetPoint" />
          </mxGeometry>
        </mxCell>
      </root>
    </mxGraphModel>
  </diagram>
</mxfile>
